<svg width="26" height="26" viewBox="0 0 26 26" fill="none" xmlns="http://www.w3.org/2000/svg">
<path d="M17.8751 11.1042C16.8297 11.1042 15.9792 11.9567 15.9792 13C15.9792 14.0432 16.8286 14.8958 17.8751 14.8958C18.9194 14.8958 19.7709 14.0443 19.7709 13C19.7709 11.9557 18.9194 11.1042 17.8751 11.1042ZM17.8751 13.8125C17.4266 13.8125 17.0626 13.4485 17.0626 13C17.0626 12.5526 17.4277 12.1875 17.8751 12.1875C18.3225 12.1875 18.6876 12.5515 18.6876 13C18.6876 13.4474 18.3236 13.8125 17.8751 13.8125ZM13.0001 11.1042C11.9536 11.1042 11.1042 11.9567 11.1042 13C11.1042 14.0432 11.9547 14.8958 13.0001 14.8958C14.0455 14.8958 14.8959 14.0443 14.8959 13C14.8959 11.9557 14.0466 11.1042 13.0001 11.1042ZM13.0001 13.8125C12.5516 13.8125 12.1876 13.4485 12.1876 13C12.1876 12.5526 12.5527 12.1875 13.0001 12.1875C13.4475 12.1875 13.8126 12.5515 13.8126 13C13.8126 13.4474 13.4486 13.8125 13.0001 13.8125ZM8.12508 11.1042C7.07966 11.1042 6.22925 11.9567 6.22925 13C6.22925 14.0432 7.07966 14.8958 8.12508 14.8958C9.16942 14.8958 10.0209 14.0443 10.0209 13C10.0209 11.9557 9.16833 11.1042 8.12508 11.1042ZM8.12508 13.8125C7.67658 13.8125 7.31258 13.4485 7.31258 13C7.31258 12.5526 7.67766 12.1875 8.12508 12.1875C8.5725 12.1875 8.93758 12.5515 8.93758 13C8.93758 13.4474 8.57358 13.8125 8.12508 13.8125Z" fill="white"/>
<path d="M13.0001 24.6458C6.57808 24.6458 1.35425 19.422 1.35425 13C1.35425 6.578 6.57808 1.35417 13.0001 1.35417C19.4221 1.35417 24.6459 6.578 24.6459 13C24.6459 19.422 19.4221 24.6458 13.0001 24.6458ZM13.0001 2.97917C7.47508 2.97917 2.97925 7.475 2.97925 13C2.97925 18.525 7.47508 23.0208 13.0001 23.0208C18.5251 23.0208 23.0209 18.525 23.0209 13C23.0209 7.475 18.5251 2.97917 13.0001 2.97917Z" fill="white"/>
</svg>
