<svg width="26" height="26" viewBox="0 0 26 26" fill="none" xmlns="http://www.w3.org/2000/svg">
<path d="M13 12.8007C14.4679 12.8007 16.1114 12.6382 17.16 11.44C18.0419 10.4325 18.3279 8.87467 18.0332 6.682C17.6215 3.62158 15.7398 1.794 13 1.794C10.2603 1.794 8.37852 3.62158 7.96685 6.68417C7.67219 8.87467 7.95819 10.4325 8.84002 11.44C9.88869 12.6392 11.5321 12.8007 13 12.8007V12.8007ZM9.57669 6.89867C9.75219 5.59867 10.4293 3.419 13 3.419C15.5708 3.419 16.2479 5.59975 16.4234 6.89867C16.6476 8.57783 16.4851 9.74458 15.9359 10.3707C15.4429 10.9341 14.5644 11.1757 13 11.1757C11.4357 11.1757 10.5571 10.9341 10.0642 10.3707C9.51494 9.74458 9.35244 8.57675 9.57669 6.89867ZM21.97 20.839C21.0199 17.0192 17.3312 14.3498 13 14.3498C8.66885 14.3498 4.9801 17.0192 4.03002 20.839C3.84369 21.5887 3.99969 22.3557 4.45794 22.9407C4.89994 23.504 5.5846 23.829 6.33535 23.829H19.6647C20.4154 23.829 21.1001 23.504 21.5421 22.9407C22.0014 22.3557 22.1564 21.5897 21.9689 20.839H21.97ZM20.2627 21.9397C20.1262 22.113 19.9204 22.2062 19.6647 22.2062H6.33535C6.08077 22.2062 5.87385 22.1141 5.73735 21.9397C5.58894 21.7512 5.54235 21.4933 5.60735 21.2312C6.37652 18.1382 9.41744 15.977 13 15.977C16.5826 15.977 19.6235 18.1372 20.3927 21.2312C20.4577 21.4933 20.4111 21.7512 20.2627 21.9397V21.9397Z" fill="white"/>
</svg>
