<svg width="39" height="39" viewBox="0 0 39 39" fill="none" xmlns="http://www.w3.org/2000/svg">
<path d="M29.772 17.506L24.154 15.314L21.994 8.81399C21.892 8.50699 21.604 8.29999 21.282 8.29999C20.96 8.29999 20.672 8.50699 20.57 8.81299L18.41 15.313L12.79 17.505C12.503 17.617 12.313 17.895 12.313 18.205C12.313 18.515 12.503 18.79 12.791 18.903L18.411 21.095L20.571 27.595C20.673 27.901 20.961 28.108 21.283 28.108C21.605 28.108 21.893 27.901 21.995 27.595L24.155 21.095L29.775 18.903C30.062 18.791 30.252 18.513 30.252 18.203C30.252 17.893 30.062 17.618 29.774 17.506H29.772ZM23.282 19.826C23.074 19.906 22.912 20.076 22.842 20.286L21.282 24.981L19.722 20.288C19.652 20.078 19.492 19.908 19.284 19.826L15.129 18.206L19.283 16.584C19.491 16.504 19.653 16.334 19.723 16.122L21.283 11.429L22.843 16.123C22.913 16.335 23.073 16.505 23.281 16.586L27.436 18.206L23.281 19.828L23.282 19.826ZM13.663 10.812H11.783V9.04999C11.783 8.63599 11.446 8.29999 11.033 8.29999C10.62 8.29999 10.283 8.63599 10.283 9.04999V10.812H8.5C8.086 10.812 7.75 11.148 7.75 11.562C7.75 11.976 8.086 12.312 8.5 12.312H10.282V14.074C10.282 14.488 10.618 14.824 11.032 14.824C11.446 14.824 11.782 14.488 11.782 14.074V12.312H13.662C14.077 12.312 14.412 11.976 14.412 11.562C14.412 11.148 14.077 10.812 13.662 10.812H13.663ZM16.198 26.434H15.098V25.418C15.098 25.004 14.763 24.668 14.348 24.668C13.933 24.668 13.598 25.004 13.598 25.418V26.434H12.57C12.156 26.434 11.82 26.77 11.82 27.184C11.82 27.598 12.156 27.934 12.57 27.934H13.6V28.95C13.6 29.364 13.935 29.7 14.35 29.7C14.765 29.7 15.1 29.364 15.1 28.95V27.934H16.198C16.612 27.934 16.948 27.598 16.948 27.184C16.948 26.77 16.612 26.434 16.198 26.434Z" fill="#1DA1F2"/>
</svg>
