<svg width="39" height="39" viewBox="0 0 39 39" fill="none" xmlns="http://www.w3.org/2000/svg">
<path d="M19 29.75C13.072 29.75 8.25 24.928 8.25 19C8.25 13.072 13.072 8.25 19 8.25C24.928 8.25 29.75 13.072 29.75 19C29.75 24.928 24.928 29.75 19 29.75ZM19 9.75C13.9 9.75 9.75 13.9 9.75 19C9.75 24.1 13.9 28.25 19 28.25C24.1 28.25 28.25 24.1 28.25 19C28.25 13.9 24.1 9.75 19 9.75Z" fill="#1DA1F2"/>
<path d="M19 24.115C17.108 24.115 15.367 23.165 14.344 21.571C14.12 21.223 14.221 20.761 14.57 20.536C14.918 20.31 15.382 20.412 15.606 20.762C16.353 21.924 17.622 22.617 19.001 22.617C20.38 22.617 21.649 21.924 22.397 20.763C22.621 20.413 23.085 20.313 23.433 20.538C23.783 20.762 23.883 21.226 23.659 21.574C22.634 23.168 20.893 24.119 19.001 24.119L19 24.115Z" fill="#1DA1F2"/>
<path d="M21.738 17.936C22.5543 17.936 23.216 17.2743 23.216 16.458C23.216 15.6417 22.5543 14.98 21.738 14.98C20.9217 14.98 20.26 15.6417 20.26 16.458C20.26 17.2743 20.9217 17.936 21.738 17.936Z" fill="#1DA1F2"/>
<path d="M16.2619 17.936C17.0782 17.936 17.7399 17.2743 17.7399 16.458C17.7399 15.6417 17.0782 14.98 16.2619 14.98C15.4457 14.98 14.7839 15.6417 14.7839 16.458C14.7839 17.2743 15.4457 17.936 16.2619 17.936Z" fill="#1DA1F2"/>
</svg>
