<svg width="39" height="39" viewBox="0 0 39 39" fill="none" xmlns="http://www.w3.org/2000/svg">
<path d="M25.9999 17.5V15.8H21.5999V22.2H23.2999V20.2H25.2999V18.5H23.2999V17.5H25.9999V17.5ZM18.6999 15.8H20.3999V22.2H18.6999V15.8ZM15.0999 17.4C15.4999 17.4 15.9999 17.6 16.2999 17.9L17.4999 16.9C16.8999 16.2 15.9999 15.8 15.0999 15.8C13.2999 15.8 11.8999 17.2 11.8999 19C11.8999 20.8 13.2999 22.2 15.0999 22.2C16.0999 22.2 16.8999 21.8 17.4999 21.1V18.6H14.6999V19.8H15.8999V20.4C15.6999 20.5 15.3999 20.6 15.0999 20.6C14.1999 20.6 13.4999 19.9 13.4999 19C13.4999 18.2 14.1999 17.4 15.0999 17.4V17.4Z" fill="#1DA1F2"/>
<path d="M27.5 9.01999H10.5C9.26 9.01999 8.25 10.027 8.25 11.267V26.774C8.25 28.012 9.26 29.02 10.5 29.02H27.5C28.74 29.02 29.75 28.012 29.75 26.774V11.267C29.75 10.027 28.74 9.01999 27.5 9.01999V9.01999ZM28.25 26.774C28.25 27.184 27.914 27.52 27.5 27.52H10.5C10.086 27.52 9.75 27.184 9.75 26.774V11.267C9.75 10.855 10.086 10.52 10.5 10.52H27.5C27.914 10.52 28.25 10.855 28.25 11.267V26.774Z" fill="#1DA1F2"/>
</svg>
