<svg width="26" height="26" viewBox="0 0 26 26" fill="none" xmlns="http://www.w3.org/2000/svg">
<path  d="M24.4616 7.9625L13.5145 2.05508C13.1927 1.88175 12.806 1.88175 12.4853 2.05508L1.54366 7.9625C1.01716 8.2485 0.82108 8.905 1.10491 9.4315C1.29991 9.79441 1.67366 10.0002 2.05825 10.0002C2.23158 10.0002 2.40925 9.95908 2.57283 9.87025L3.368 9.44125L5.0905 21.6287C5.3245 22.9439 6.50966 23.8626 7.97216 23.8626H18.0277C19.4902 23.8626 20.6753 22.9439 20.9115 21.6006L22.6318 9.44016L23.4302 9.87133C23.9557 10.1562 24.6132 9.96016 24.8971 9.43366C25.182 8.90716 24.9837 8.24958 24.4594 7.96575L24.4616 7.9625ZM12.9999 16.7212C11.0553 16.7212 9.47908 15.145 9.47908 13.2004C9.47908 11.2558 11.0553 9.67958 12.9999 9.67958C14.9445 9.67958 16.5207 11.2558 16.5207 13.2004C16.5207 15.145 14.9445 16.7212 12.9999 16.7212Z" fill="#d9d9d9"/>
</svg>
