<svg width="39" height="39" viewBox="0 0 39 39" fill="none" xmlns="http://www.w3.org/2000/svg">
<path d="M26.75 9H11.25C10.01 9 9 10.01 9 11.25V26.75C9 27.99 10.01 29 11.25 29H26.75C27.99 29 29 27.99 29 26.75V11.25C29 10.01 27.99 9 26.75 9ZM11.25 10.5H26.75C27.163 10.5 27.5 10.837 27.5 11.25V20.926L23.642 17.068C23.502 16.928 23.312 16.848 23.112 16.848H23.109C22.909 16.848 22.716 16.928 22.577 17.072L18.26 21.456L16.447 19.65C16.307 19.51 16.117 19.43 15.917 19.43C15.724 19.4 15.522 19.51 15.382 19.657L10.5 24.642V11.25C10.5 10.837 10.837 10.5 11.25 10.5ZM10.506 26.78L15.924 21.246L22.206 27.5H11.25C10.848 27.5 10.523 27.178 10.506 26.78ZM26.75 27.5H24.33L19.323 22.513L23.115 18.663L27.5 23.047V26.75C27.5 27.163 27.163 27.5 26.75 27.5Z" fill="#1DA1F2"/>
<path d="M15.8679 16.851C16.7196 16.851 17.4099 16.1606 17.4099 15.309C17.4099 14.4574 16.7196 13.767 15.8679 13.767C15.0163 13.767 14.3259 14.4574 14.3259 15.309C14.3259 16.1606 15.0163 16.851 15.8679 16.851Z" fill="#1DA1F2"/>
</svg>
