<svg width="18" height="19" viewBox="0 0 18 19" fill="none" xmlns="http://www.w3.org/2000/svg">
<path d="M8.9999 16.666H8.9894C7.05215 16.63 1.4624 11.5795 1.4624 6.796C1.4624 4.498 3.35615 2.4805 5.51465 2.4805C7.23215 2.4805 8.38715 3.6655 8.99915 4.528C9.60965 3.667 10.7647 2.4805 12.4829 2.4805C14.6429 2.4805 16.5359 4.498 16.5359 6.79675C16.5359 11.5787 10.9454 16.6292 9.00815 16.6645H8.9999V16.666ZM5.5154 3.60625C3.9554 3.60625 2.58815 5.09725 2.58815 6.7975C2.58815 11.1025 7.86365 15.4945 9.00065 15.541C10.1392 15.4945 15.4132 11.1032 15.4132 6.7975C15.4132 5.09725 14.0459 3.60625 12.4859 3.60625C10.5899 3.60625 9.5309 5.80825 9.5219 5.83C9.3494 6.2515 8.6549 6.2515 8.48165 5.83C8.47115 5.8075 7.4129 3.60625 5.51615 3.60625H5.5154Z" fill="#6E767D"/>
</svg>
