<svg width="39" height="39" viewBox="0 0 39 39" fill="none" xmlns="http://www.w3.org/2000/svg">
<path d="M27.222 16.16H25.888C25.903 16.07 25.916 15.978 25.916 15.883V13.57C25.916 12.59 25.119 11.793 24.138 11.793H10.5V10.358C10.5 9.944 10.164 9.608 9.75 9.608C9.336 9.608 9 9.944 9 10.358V27.83C9 28.245 9.336 28.58 9.75 28.58C10.164 28.58 10.5 28.245 10.5 27.83V26.396H21.056C22.036 26.396 22.834 25.599 22.834 24.619V22.306C22.834 22.211 22.82 22.119 22.806 22.028H27.223C28.203 22.028 29.001 21.23 29.001 20.25V17.94C29.001 16.957 28.204 16.16 27.223 16.16H27.222ZM24.14 13.293C24.292 13.293 24.417 13.417 24.417 13.57V15.88C24.417 16.034 24.292 16.16 24.139 16.16H10.5V13.29H24.14V13.293ZM21.333 22.307V24.619C21.333 24.772 21.208 24.896 21.055 24.896H10.5V22.028H21.056C21.209 22.028 21.333 22.154 21.333 22.308V22.307ZM27.5 20.25C27.5 20.403 27.375 20.527 27.222 20.527H10.5V17.66H27.222C27.375 17.66 27.5 17.784 27.5 17.937V20.25Z" fill="#1DA1F2"/>
</svg>
