<svg width="26" height="26" viewBox="0 0 26 26" fill="none" xmlns="http://www.w3.org/2000/svg">
<path d="M21.3959 23.8333H4.60425C3.26091 23.8333 2.16675 22.7392 2.16675 21.3958V4.60416C2.16675 3.26083 3.26091 2.16666 4.60425 2.16666H21.3959C22.7392 2.16666 23.8334 3.26083 23.8334 4.60416V21.3958C23.8334 22.7392 22.7392 23.8333 21.3959 23.8333ZM4.60425 3.79166C4.15575 3.79166 3.79175 4.15675 3.79175 4.60416V21.3958C3.79175 21.8432 4.15575 22.2083 4.60425 22.2083H21.3959C21.8444 22.2083 22.2084 21.8432 22.2084 21.3958V4.60416C22.2084 4.15675 21.8444 3.79166 21.3959 3.79166H4.60425Z" fill="white"/>
<path d="M18.4168 9.36H7.5835C7.135 9.36 6.771 8.99492 6.771 8.5475C6.771 8.10008 7.135 7.735 7.5835 7.735H18.4168C18.8653 7.735 19.2293 8.09792 19.2293 8.5475C19.2293 8.99708 18.8653 9.36 18.4168 9.36ZM18.4168 13.8125H7.5835C7.135 13.8125 6.771 13.4485 6.771 13C6.771 12.5515 7.135 12.1875 7.5835 12.1875H18.4168C18.8653 12.1875 19.2293 12.5515 19.2293 13C19.2293 13.4485 18.8653 13.8125 18.4168 13.8125ZM13.0002 18.265H7.5835C7.135 18.265 6.771 17.9021 6.771 17.4525C6.771 17.0029 7.135 16.64 7.5835 16.64H13.0002C13.4487 16.64 13.8127 17.0051 13.8127 17.4525C13.8127 17.8999 13.4487 18.265 13.0002 18.265Z" fill="white"/>
</svg>
