<svg width="47" height="47" viewBox="0 0 47 47" fill="none" xmlns="http://www.w3.org/2000/svg">
<path d="M0 23.5C0 10.5213 10.5213 0 23.5 0V0C36.4787 0 47 10.5213 47 23.5V23.5C47 36.4787 36.4787 47 23.5 47V47C10.5213 47 0 36.4787 0 23.5V23.5Z" fill="black"/>
<path d="M35.6133 15.3484C34.7087 15.7492 33.737 16.0201 32.7154 16.1425C33.7576 15.5185 34.5571 14.5283 34.9341 13.3497C33.9591 13.9282 32.879 14.3485 31.7296 14.5738C30.8087 13.5945 29.4979 12.9813 28.0462 12.9813C25.2599 12.9813 23.0001 15.2412 23.0001 18.0297C23.0001 18.424 23.0456 18.8075 23.1301 19.178C18.9343 18.9667 15.2174 16.9572 12.7279 13.9043C12.2946 14.6518 12.0454 15.5185 12.0454 16.4415C12.0454 18.1922 12.937 19.7381 14.2901 20.6427C13.4624 20.6156 12.6846 20.3892 12.0042 20.0111V20.0761C12.0042 22.5212 13.743 24.5611 16.0526 25.0247C15.628 25.1396 15.1827 25.2002 14.7234 25.2002C14.3984 25.2002 14.081 25.1699 13.7733 25.1114C14.4157 27.1156 16.2791 28.5759 18.488 28.6149C16.7601 29.9691 14.5836 30.7762 12.2198 30.7762C11.8125 30.7762 11.4106 30.7523 11.0151 30.7057C13.249 32.139 15.901 32.9732 18.7501 32.9732C28.0343 32.9732 33.1097 25.2837 33.1097 18.6147C33.1097 18.398 33.1043 18.1792 33.0946 17.9625C34.0804 17.2497 34.9362 16.3624 35.6111 15.3517L35.6133 15.3484Z" fill="white"/>
</svg>
