<svg width="26" height="26" viewBox="0 0 26 26" fill="none" xmlns="http://www.w3.org/2000/svg">
<path d="M17.875 11.1042C16.8296 11.1042 15.9792 11.9568 15.9792 13C15.9792 14.0433 16.8285 14.8958 17.875 14.8958C18.9194 14.8958 19.7709 14.0443 19.7709 13C19.7709 11.9557 18.9194 11.1042 17.875 11.1042ZM17.875 13.8125C17.4265 13.8125 17.0625 13.4485 17.0625 13C17.0625 12.5526 17.4276 12.1875 17.875 12.1875C18.3224 12.1875 18.6875 12.5515 18.6875 13C18.6875 13.4474 18.3235 13.8125 17.875 13.8125ZM13 11.1042C11.9535 11.1042 11.1042 11.9568 11.1042 13C11.1042 14.0433 11.9546 14.8958 13 14.8958C14.0454 14.8958 14.8959 14.0443 14.8959 13C14.8959 11.9557 14.0465 11.1042 13 11.1042ZM13 13.8125C12.5515 13.8125 12.1875 13.4485 12.1875 13C12.1875 12.5526 12.5526 12.1875 13 12.1875C13.4474 12.1875 13.8125 12.5515 13.8125 13C13.8125 13.4474 13.4485 13.8125 13 13.8125ZM8.12502 11.1042C7.0796 11.1042 6.22919 11.9568 6.22919 13C6.22919 14.0433 7.0796 14.8958 8.12502 14.8958C9.16935 14.8958 10.0209 14.0443 10.0209 13C10.0209 11.9557 9.16827 11.1042 8.12502 11.1042ZM8.12502 13.8125C7.67652 13.8125 7.31252 13.4485 7.31252 13C7.31252 12.5526 7.6776 12.1875 8.12502 12.1875C8.57244 12.1875 8.93752 12.5515 8.93752 13C8.93752 13.4474 8.57352 13.8125 8.12502 13.8125Z" fill="white"/>
<path d="M13 24.6458C6.57802 24.6458 1.35419 19.422 1.35419 13C1.35419 6.578 6.57802 1.35417 13 1.35417C19.422 1.35417 24.6459 6.578 24.6459 13C24.6459 19.422 19.422 24.6458 13 24.6458ZM13 2.97917C7.47502 2.97917 2.97919 7.475 2.97919 13C2.97919 18.525 7.47502 23.0208 13 23.0208C18.525 23.0208 23.0209 18.525 23.0209 13C23.0209 7.475 18.525 2.97917 13 2.97917Z" fill="white"/>
</svg>
