<svg width="18" height="18" viewBox="0 0 18 18" fill="none" xmlns="http://www.w3.org/2000/svg">
<path d="M4.04167 10.4166C4.82407 10.4166 5.45833 9.78238 5.45833 8.99998C5.45833 8.21758 4.82407 7.58331 4.04167 7.58331C3.25926 7.58331 2.625 8.21758 2.625 8.99998C2.625 9.78238 3.25926 10.4166 4.04167 10.4166Z" fill="#6E767D"/>
<path d="M9.00001 10.4166C9.78241 10.4166 10.4167 9.78238 10.4167 8.99998C10.4167 8.21758 9.78241 7.58331 9.00001 7.58331C8.21761 7.58331 7.58334 8.21758 7.58334 8.99998C7.58334 9.78238 8.21761 10.4166 9.00001 10.4166Z" fill="#6E767D"/>
<path d="M13.9583 10.4166C14.7407 10.4166 15.375 9.78238 15.375 8.99998C15.375 8.21758 14.7407 7.58331 13.9583 7.58331C13.1759 7.58331 12.5417 8.21758 12.5417 8.99998C12.5417 9.78238 13.1759 10.4166 13.9583 10.4166Z" fill="#6E767D"/>
</svg>
