<svg width="26" height="26" viewBox="0 0 26 26" fill="none" xmlns="http://www.w3.org/2000/svg">
<path d="M23.505 17.8403C23.4834 17.823 21.1867 16.0637 21.2268 11.3078C21.2484 8.56482 20.3471 6.12732 18.6842 4.4449C17.1946 2.93582 15.1774 2.10165 13.0054 2.09082H12.9913C10.8203 2.10165 8.8031 2.93582 7.31244 4.44599C5.6506 6.1284 4.7471 8.56482 4.77094 11.3078C4.81102 15.9987 2.5826 17.7721 2.49377 17.8403C2.2121 18.0494 2.09727 18.4145 2.20669 18.7482C2.31719 19.0818 2.62919 19.3061 2.97802 19.3061H8.30802C8.41852 21.8086 10.4714 23.8127 12.9989 23.8127C15.5263 23.8127 17.577 21.8086 17.6864 19.3061H23.0186C23.3674 19.3061 23.6794 19.0829 23.7878 18.7492C23.8994 18.4167 23.7845 18.0505 23.5029 17.8414L23.505 17.8403ZM12.9999 22.1845C11.3695 22.1845 10.0424 20.9094 9.93627 19.305H16.0636C15.9553 20.9083 14.6304 22.1867 12.9999 22.1867V22.1845ZM4.74494 17.68C5.5466 16.4537 6.42194 14.3997 6.39594 11.2927C6.37644 8.95265 7.0936 6.97882 8.46835 5.58674C9.65244 4.38749 11.2634 3.7234 12.9999 3.71582C14.7365 3.72449 16.3442 4.38749 17.5283 5.58782C18.9041 6.9799 19.6224 8.95265 19.6029 11.2937C19.5769 14.4007 20.4533 16.4558 21.2549 17.6811H4.74494V17.68Z" fill="white"/>
</svg>
