<svg width="19" height="19" viewBox="0 0 19 19" fill="none" xmlns="http://www.w3.org/2000/svg">
<path d="M9.49999 6.4996C7.84541 6.4996 6.49957 7.84544 6.49957 9.50002C6.49957 11.1546 7.84541 12.5004 9.49999 12.5004C11.1546 12.5004 12.5004 11.1546 12.5004 9.50002C12.5004 7.84544 11.1546 6.4996 9.49999 6.4996ZM9.49999 11.3129C8.50091 11.3129 7.68707 10.5007 7.68707 9.50002C7.68707 8.49935 8.50249 7.6871 9.49999 7.6871C10.4975 7.6871 11.3129 8.49935 11.3129 9.50002C11.3129 10.5007 10.4991 11.3129 9.49999 11.3129V11.3129Z" fill="white"/>
<path d="M9.78498 17.7136H9.21339C8.27685 17.7136 7.50814 17.0106 7.42264 16.0796L7.41156 15.9632C7.39177 15.736 7.24768 15.5412 7.03789 15.4533C6.81148 15.3583 6.57714 15.4019 6.40614 15.5444L6.31431 15.6212C5.62714 16.1951 4.53068 16.1461 3.89181 15.5103L3.48806 15.1066C2.82623 14.4416 2.77873 13.4013 3.37723 12.6841L3.45481 12.5907C3.60206 12.4149 3.63689 12.1766 3.55139 11.9676C3.46431 11.7523 3.26798 11.6082 3.03998 11.5876L2.92123 11.5766C1.98706 11.4918 1.28485 10.7216 1.28485 9.7858V9.21422C1.28485 8.27768 1.98785 7.50897 2.91885 7.42347L3.04235 7.41239C3.26798 7.39259 3.46193 7.24851 3.5506 7.03793C3.63768 6.82418 3.60206 6.5843 3.4556 6.40855L3.38118 6.31672C2.78189 5.59789 2.8286 4.55684 3.48964 3.89422L3.89498 3.48889C4.53148 2.85239 5.62714 2.80409 6.31748 3.37805L6.40931 3.45564C6.58189 3.6013 6.82731 3.63772 7.03473 3.55222C7.24848 3.46355 7.39256 3.2688 7.41235 3.04318L7.42343 2.92205C7.50814 1.98789 8.27843 1.28647 9.21418 1.28647H9.78577C10.7223 1.28647 11.491 1.98947 11.5765 2.92047L11.5876 3.04397C11.6074 3.26959 11.7507 3.46355 11.9613 3.55064C12.1806 3.64326 12.4204 3.59972 12.5899 3.45801L12.6849 3.37726C13.3712 2.80489 14.4693 2.85318 15.1074 3.48809L15.5111 3.89343C16.1729 4.55684 16.2204 5.59789 15.6219 6.31593L15.5428 6.40934C15.3939 6.58351 15.3575 6.82259 15.4454 7.03318C15.5341 7.24693 15.7304 7.38943 15.9568 7.41159L16.0771 7.42268C17.0113 7.50739 17.7135 8.27768 17.7135 9.21343V9.7858C17.7135 10.7223 17.0105 11.4911 16.0795 11.5766L15.9568 11.5876C15.732 11.6066 15.5372 11.7499 15.4501 11.9597C15.3607 12.1751 15.3971 12.4141 15.5428 12.5891L15.6219 12.6841C16.2204 13.4006 16.1729 14.4416 15.5111 15.1066L15.1074 15.5103C14.4685 16.1468 13.3736 16.1943 12.6849 15.6212L12.5938 15.5452C12.422 15.4003 12.1742 15.3631 11.9684 15.4486C11.7523 15.5388 11.6082 15.7336 11.5884 15.96L11.5773 16.0788C11.4926 17.0074 10.7223 17.7096 9.78656 17.7096L9.78498 17.7136ZM6.79802 14.2144C7.03552 14.2144 7.26748 14.2619 7.48677 14.3529C8.11218 14.6126 8.53493 15.1873 8.5951 15.8539L8.60618 15.9703C8.63548 16.287 8.89673 16.5245 9.21577 16.5245H9.78735C10.104 16.5245 10.3653 16.287 10.3954 15.9703L10.4064 15.8531C10.4666 15.1866 10.8894 14.6126 11.5084 14.3553C12.1362 14.0941 12.8511 14.2112 13.3554 14.6324L13.4449 14.7068C13.5858 14.824 13.7346 14.8493 13.8351 14.8493C13.9982 14.8493 14.1518 14.786 14.2674 14.6696L14.6711 14.2658C14.896 14.041 14.9126 13.6879 14.7091 13.4441L14.63 13.3491C14.2009 12.8345 14.094 12.1299 14.3513 11.5101C14.6094 10.8846 15.1841 10.4651 15.8507 10.4041L15.9734 10.393C16.2877 10.3637 16.5276 10.1025 16.5276 9.78343V9.21184C16.5276 8.89518 16.2877 8.63393 15.9719 8.60384L15.8515 8.59276C15.1818 8.53101 14.6086 8.10984 14.3513 7.48997C14.0932 6.86614 14.2009 6.16155 14.6308 5.64776L14.7099 5.55434C14.9134 5.30893 14.8968 4.95584 14.6719 4.73101L14.2682 4.32726C14.1526 4.21089 13.999 4.14755 13.8359 4.14755C13.7354 4.14755 13.5866 4.17289 13.4464 4.29005L13.3514 4.36922C12.8495 4.78722 12.1244 4.89964 11.5132 4.64947C10.8894 4.39059 10.4682 3.81664 10.4072 3.14847L10.3961 3.02576C10.3684 2.71147 10.1072 2.47159 9.78893 2.47159H9.21656C8.89989 2.47159 8.63864 2.71147 8.60856 3.02734L8.59748 3.14768C8.53731 3.81505 8.11614 4.38901 7.49706 4.6463C6.87402 4.90439 6.15677 4.79118 5.65248 4.36922L5.55906 4.29322C5.41656 4.17447 5.26773 4.15072 5.16718 4.15072C5.0041 4.15072 4.85052 4.21405 4.73493 4.32964L4.3296 4.73339C4.10635 4.95822 4.08973 5.3113 4.29318 5.55514L4.37235 5.64855C4.79985 6.16551 4.90831 6.87089 4.65102 7.48918C4.39214 8.11301 3.81818 8.53418 3.15081 8.59514L3.02731 8.60622C2.71302 8.63551 2.47314 8.89676 2.47314 9.2158V9.78739C2.47314 10.1041 2.71302 10.3653 3.02889 10.3954L3.14764 10.4065C3.81898 10.4682 4.39293 10.891 4.64943 11.5116C4.90673 12.1339 4.79985 12.8377 4.36998 13.3523L4.29398 13.4433C4.08814 13.6887 4.10556 14.0418 4.33039 14.2666L4.73414 14.6704C4.84973 14.7868 5.00331 14.8501 5.16639 14.8501C5.26693 14.8501 5.41577 14.8263 5.55589 14.7076L5.64773 14.6316C5.96914 14.3656 6.37843 14.2168 6.79802 14.2168V14.2144Z" fill="white"/>
</svg>
