<svg width="18" height="19" viewBox="0 0 18 19" fill="none" xmlns="http://www.w3.org/2000/svg">
<path d="M10.5345 2.119L7.42352 2.1115H7.42202C4.14152 2.1115 1.57202 4.68175 1.57202 7.963C1.57202 11.0365 3.96152 13.3675 7.17077 13.4905V16.3615C7.17077 16.4425 7.20377 16.576 7.26077 16.6637C7.36727 16.8325 7.54877 16.924 7.73477 16.924C7.83827 16.924 7.94252 16.8955 8.03627 16.8355C8.23427 16.7095 12.891 13.7305 14.1023 12.706C15.5288 11.4985 16.3823 9.7285 16.3845 7.972V7.95925C16.38 4.684 13.812 2.119 10.5345 2.11825V2.119ZM13.3748 11.848C12.5243 12.568 9.72827 14.4017 8.29577 15.3302V12.94C8.29577 12.6295 8.04452 12.3775 7.73327 12.3775H7.43627C4.69127 12.3775 2.69777 10.5205 2.69777 7.963C2.69777 5.3125 4.77377 3.2365 7.42277 3.2365L10.533 3.244H10.5345C13.1835 3.244 15.2595 5.3185 15.261 7.966C15.2588 9.3985 14.5545 10.849 13.3755 11.848H13.3748Z" fill="#6E767D"/>
</svg>
