<svg width="18" height="19" viewBox="0 0 18 19" fill="none" xmlns="http://www.w3.org/2000/svg">
<path d="M17.8274 12.19C17.6084 11.9703 17.2522 11.9703 17.0324 12.19L15.3674 13.855V6.175C15.3674 4.624 14.1052 3.3625 12.5549 3.3625H8.16742C7.85692 3.3625 7.60492 3.6145 7.60492 3.925C7.60492 4.2355 7.85692 4.4875 8.16742 4.4875H12.5549C13.4849 4.4875 14.2424 5.245 14.2424 6.175V13.855L12.5774 12.19C12.3577 11.9703 12.0014 11.9703 11.7824 12.19C11.5634 12.4098 11.5619 12.766 11.7824 12.985L14.4074 15.61C14.5162 15.7203 14.6602 15.775 14.8049 15.775C14.9497 15.775 15.0922 15.721 15.2024 15.61L17.8274 12.985C18.0479 12.766 18.0479 12.4098 17.8274 12.19V12.19ZM9.83242 14.65H5.44492C4.51492 14.65 3.75742 13.8925 3.75742 12.9625V5.2825L5.42242 6.9475C5.53342 7.05775 5.67742 7.1125 5.82142 7.1125C5.96542 7.1125 6.10942 7.05775 6.21892 6.9475C6.43867 6.72775 6.43867 6.3715 6.21892 6.1525L3.59392 3.5275C3.37417 3.307 3.01792 3.307 2.79892 3.5275L0.17392 6.1525C-0.0465801 6.3715 -0.0465801 6.72775 0.17392 6.9475C0.39442 7.16725 0.74917 7.16725 0.96892 6.9475L2.63392 5.2825V12.9625C2.63392 14.5135 3.89617 15.775 5.44642 15.775H9.83392C10.1444 15.775 10.3964 15.523 10.3964 15.2125C10.3964 14.902 10.1437 14.65 9.83392 14.65H9.83242Z" fill="#6E767D"/>
</svg>
