<svg width="18" height="19" viewBox="0 0 18 19" fill="none" xmlns="http://www.w3.org/2000/svg">
<path d="M13.1474 6.04L9.39739 2.29C9.17764 2.07025 8.82139 2.07025 8.60239 2.29L4.85239 6.04C4.63189 6.25975 4.63189 6.616 4.85239 6.835C5.07289 7.054 5.42764 7.0555 5.64739 6.835L8.43739 4.045V11.6875C8.43739 11.998 8.68939 12.25 8.99989 12.25C9.31039 12.25 9.56239 11.998 9.56239 11.6875V4.045L12.3524 6.835C12.4619 6.94525 12.6059 7 12.7499 7C12.8939 7 13.0379 6.946 13.1474 6.835C13.3671 6.61525 13.3671 6.25975 13.1474 6.04V6.04Z" fill="#6E767D"/>
<path d="M14.781 16.8955H3.219C2.271 16.8955 1.5 16.1245 1.5 15.1765V10.9375C1.5 10.627 1.752 10.375 2.0625 10.375C2.373 10.375 2.625 10.627 2.625 10.9375V15.1765C2.625 15.5043 2.89125 15.7705 3.219 15.7705H14.781C15.1088 15.7705 15.375 15.5043 15.375 15.1765V10.9375C15.375 10.627 15.627 10.375 15.9375 10.375C16.248 10.375 16.5 10.627 16.5 10.9375V15.1765C16.5 16.1245 15.729 16.8955 14.781 16.8955V16.8955Z" fill="#6E767D"/>
</svg>
