<svg width="26" height="26" viewBox="0 0 26 26" fill="none" xmlns="http://www.w3.org/2000/svg">
<path d="M25.6133 5.34841C24.7087 5.74924 23.737 6.02007 22.7154 6.14249C23.7576 5.51849 24.5571 4.52832 24.9341 3.34966C23.9591 3.92816 22.879 4.34849 21.7296 4.57382C20.8087 3.59449 19.4979 2.98132 18.0462 2.98132C15.2599 2.98132 13.0001 5.24116 13.0001 8.02966C13.0001 8.42399 13.0456 8.80749 13.1301 9.17799C8.9343 8.96674 5.21739 6.95716 2.72789 3.90432C2.29455 4.65182 2.04539 5.51849 2.04539 6.44149C2.04539 8.19216 2.93697 9.73807 4.29005 10.6427C3.46239 10.6156 2.68455 10.3892 2.00422 10.0111V10.0761C2.00422 12.5212 3.74297 14.5611 6.05264 15.0247C5.62797 15.1396 5.18272 15.2002 4.72339 15.2002C4.39839 15.2002 4.08097 15.1699 3.7733 15.1114C4.41572 17.1156 6.27905 18.5759 8.48797 18.6149C6.76005 19.9691 4.58364 20.7762 2.2198 20.7762C1.81247 20.7762 1.41055 20.7523 1.01514 20.7057C3.24897 22.139 5.90097 22.9732 8.75014 22.9732C18.0343 22.9732 23.1097 15.2837 23.1097 8.61466C23.1097 8.39799 23.1043 8.17916 23.0946 7.96249C24.0804 7.24966 24.9362 6.36241 25.6111 5.35166L25.6133 5.34841Z" fill="white"/>
</svg>
